<svg width="150" height="150" viewBox="0 0 150 150" fill="none" xmlns="http://www.w3.org/2000/svg">
<path d="M105.572 98.292L80.6862 98.292" stroke="#231F20" stroke-linecap="round" stroke-linejoin="round"/>
<path d="M117.321 83.8326L80.6862 83.8325" stroke="#231F20" stroke-linecap="round" stroke-linejoin="round"/>
<path d="M110.345 68.3956L80.6862 68.3956" stroke="#231F20" stroke-linecap="round" stroke-linejoin="round"/>
<path d="M63.7967 53.8954L63.7967 68.5585C63.7967 73.6091 61.5937 78.4153 57.7589 81.7145" stroke="#231F20" stroke-linecap="round" stroke-linejoin="round"/>
<path d="M69.1817 48.2338L63.7967 53.9361L109.937 53.9361C113.894 53.9361 117.566 56.8687 117.566 61.1862C117.566 65.1778 114.302 68.3956 110.304 68.3956L116.831 68.3956C120.992 68.3956 124.99 71.4911 124.99 76.1344C124.99 80.4112 121.523 83.8733 117.239 83.8733L117.688 83.8733C121.645 83.7918 124.909 86.8874 124.99 90.8382C124.99 90.9197 124.99 91.0012 124.99 91.0826C124.99 95.0743 121.727 98.3327 117.729 98.3327L105.49 98.3327C108.998 98.3327 111.854 101.143 111.854 104.646C111.854 108.434 108.713 111 105.245 111L53.1082 111C38.2586 111 26.0198 99.0659 26.0198 84.1991C26.0198 69.699 31.0785 60.9418 39.9312 52.9586L63.3887 31.3713C64.9798 29.905 67.3867 29.9864 68.8962 31.4935C73.5469 36.096 73.6285 43.509 69.1817 48.2338Z" stroke="#231F20" stroke-linecap="round" stroke-linejoin="round"/>
</svg>
