<svg width="39" height="48" viewBox="0 0 39 48" fill="none" xmlns="http://www.w3.org/2000/svg">
<g clip-path="url(#clip0_3_60)">
<path d="M29.7649 26.8211L27.1718 29.2805V8.20834C27.1718 6.40109 25.8382 4.72426 23.8749 4.72426C22.0597 4.72426 20.5965 6.21477 20.5965 8.04065V5.05962C20.5965 3.15922 19.1888 1.33334 17.0773 1.33334C15.1325 1.33334 13.5581 2.89838 13.5581 4.85468V4.87331V4.66836C13.5952 2.86111 12.169 1.3706 10.3908 1.33334C10.3538 1.33334 10.3168 1.33334 10.2797 1.33334C8.46456 1.33334 6.9828 2.80522 6.9828 4.64973V10.2392C6.9828 8.63686 5.68625 7.33266 4.09336 7.33266C2.37082 7.33266 1.20393 8.76728 1.20393 10.351V34.1619C1.20393 40.9438 6.63088 46.5332 13.3914 46.5332C18.7998 46.5332 23.9675 44.2229 27.5978 40.1799L37.4144 29.4668C38.0812 28.7402 38.0442 27.6409 37.3589 26.9516C35.2659 24.8462 31.9134 24.7903 29.7649 26.8211Z" fill="white"/>
<path d="M6.63088 10.2019V21.5671" stroke="#231F20" stroke-linecap="round" stroke-linejoin="round"/>
<path d="M13.2062 4.83604V21.5671" stroke="#231F20" stroke-linecap="round" stroke-linejoin="round"/>
<path d="M20.226 8.02202V21.5671" stroke="#231F20" stroke-linecap="round" stroke-linejoin="round"/>
<path d="M26.8199 29.2805H20.1519C17.8552 29.2805 15.6696 30.2866 14.1693 32.0379" stroke="#231F20" stroke-linecap="round" stroke-linejoin="round"/>
<path d="M29.3944 26.8211L26.8013 29.2805V8.20834C26.8013 6.40109 25.4678 4.72426 23.5044 4.72426C21.6893 4.72426 20.226 6.21477 20.226 8.04065V5.05962C20.226 3.15922 18.8184 1.33334 16.7068 1.33334C14.762 1.33334 13.1877 2.91701 13.1877 4.87331V4.66836C13.2247 2.86111 11.817 1.3706 10.0204 1.33334C9.98336 1.33334 9.94632 1.33334 9.90927 1.33334C8.09412 1.33334 6.61236 2.82385 6.61236 4.64973V10.2392C6.61236 8.63686 5.33434 7.33266 3.74145 7.33266C2.0189 7.33266 0.852013 8.76728 0.852013 10.351V34.1619C0.852013 40.9438 6.27896 46.5332 13.0395 46.5332C19.6333 46.5332 23.6156 44.2229 27.2459 40.1799L37.0625 29.4668C37.7293 28.7402 37.6923 27.6409 37.007 26.9516C34.914 24.8276 31.543 24.7903 29.3944 26.8211Z" stroke="#231F20" stroke-linecap="round" stroke-linejoin="round"/>
</g>
<defs>
<clipPath id="clip0_3_60">
<rect width="38.4146" height="46.9512" fill="white" transform="translate(0 0.439026)"/>
</clipPath>
</defs>
</svg>
