<svg width="150" height="150" viewBox="0 0 150 150" fill="none" xmlns="http://www.w3.org/2000/svg">
<path d="M76.5233 103.423C76.5233 107.772 80.0745 111.338 84.4939 111.338L94.8715 111.338C99.2515 111.338 102.842 107.811 102.842 103.423C102.842 99.0734 99.2909 95.5078 94.8715 95.5078L84.4545 95.5078C80.0745 95.5078 76.5233 99.0734 76.5233 103.423Z" stroke="#231F20" stroke-linecap="round" stroke-linejoin="round"/>
<path d="M75.1422 43.7082C83.1523 43.7082 89.663 50.1734 89.663 58.1275L89.663 92.7258C89.663 94.2931 88.4003 95.5469 86.822 95.5469L85.0463 95.5469C78.1016 95.5469 72.4196 89.9438 72.4196 83.0085L72.4196 65.8464" stroke="#231F20" stroke-linecap="round" stroke-linejoin="round"/>
<path d="M105.052 78.6984L89.663 78.6984" stroke="#231F20" stroke-linecap="round" stroke-linejoin="round"/>
<path d="M84.7307 47.3131L105.723 47.3131C109.747 47.3131 112.983 50.526 112.983 54.5227C112.983 58.5193 109.747 61.7323 105.723 61.7323L105.052 61.7323C109.787 61.6539 113.693 65.3763 113.772 70.039C113.851 74.7409 110.103 78.62 105.407 78.6984C105.289 78.6984 105.17 78.6984 105.052 78.6984L105.131 78.6984C109.787 78.62 113.693 82.3032 113.772 86.9267C113.851 91.5503 110.142 95.4294 105.486 95.5078C105.368 95.5078 105.249 95.5078 105.131 95.5078L94.8715 95.5078C99.2514 95.5078 102.842 99.0342 102.842 103.423C102.842 107.772 99.2909 111.338 94.8715 111.338L69.3023 111.338C53.2032 111.338 40.1818 98.4073 40.1818 82.4207L40.1818 78.4241C40.1818 59.2638 55.8075 43.7082 75.1422 43.7082C78.654 43.7082 82.0869 44.9621 84.7307 47.3131Z" stroke="#231F20" stroke-linecap="round" stroke-linejoin="round"/>
<path d="M105.052 61.7323L89.663 61.7323" stroke="#231F20" stroke-linecap="round" stroke-linejoin="round"/>
<path d="M72.4196 66.0424C72.4196 73.7222 66.1456 79.9522 58.4117 79.9522L54.2686 79.9522" stroke="#231F20" stroke-linecap="round" stroke-linejoin="round"/>
</svg>
