<svg width="44" height="48" viewBox="0 0 44 48" fill="none" xmlns="http://www.w3.org/2000/svg">
<path d="M37.7976 19.8817V8.93059C37.7976 6.83094 36.1123 5.14299 34.0159 5.14299C31.9195 5.14299 30.2342 6.83094 30.2342 8.93059V9.28053C30.2753 6.81035 28.3228 4.77246 25.877 4.73129C23.4106 4.69012 21.3759 6.64568 21.3348 9.09527C21.3348 9.15702 21.3348 9.21878 21.3348 9.28053V9.23936C21.3759 6.81035 19.444 4.77246 17.0187 4.73129C14.5935 4.69012 12.5588 6.62509 12.5177 9.0541C12.5177 9.11585 12.5177 9.17761 12.5177 9.23936V14.5914C12.5177 12.3065 10.6679 10.4333 8.36602 10.4333C6.08466 10.4333 4.21436 12.2859 4.21436 14.5914V27.9304C4.21436 36.329 10.9968 43.122 19.3823 43.122H21.4787C31.529 43.122 39.6884 34.9704 39.6884 24.8838C39.6884 23.0518 39.0308 21.2609 37.7976 19.8817Z" fill="white"/>
<path d="M8.36602 24.1633C6.08466 24.1633 4.21436 22.3107 4.21436 20.0052V14.5914C4.21436 12.3065 6.06411 10.4333 8.36602 10.4333C10.6474 10.4333 12.5177 12.2859 12.5177 14.5914V20.0258C12.5177 22.3107 10.6474 24.1633 8.36602 24.1633Z" stroke="#231F20" stroke-linecap="round" stroke-linejoin="round"/>
<path d="M39.6884 24.8838C39.6884 20.7051 36.2972 17.3086 32.125 17.3086H13.9769C13.1548 17.3086 12.4971 17.9673 12.4971 18.7907V19.717C12.4971 23.3399 15.4362 26.3042 19.074 26.3042H28.0761" stroke="#231F20" stroke-linecap="round" stroke-linejoin="round"/>
<path d="M21.3348 9.28053V17.3086" stroke="#231F20" stroke-linecap="round" stroke-linejoin="round"/>
<path d="M37.7976 19.8817V8.93059C37.7976 6.83094 36.1123 5.14299 34.0159 5.14299C31.9195 5.14299 30.2342 6.83094 30.2342 8.93059V9.28053C30.2753 6.81035 28.3228 4.77246 25.877 4.73129C23.4106 4.69012 21.3759 6.64568 21.3348 9.09527C21.3348 9.15702 21.3348 9.21878 21.3348 9.28053V9.23936C21.3759 6.81035 19.444 4.77246 17.0187 4.73129C14.5935 4.69012 12.5588 6.62509 12.5177 9.0541C12.5177 9.11585 12.5177 9.17761 12.5177 9.23936V14.5914C12.5177 12.3065 10.6679 10.4333 8.36602 10.4333C6.08466 10.4333 4.21436 12.2859 4.21436 14.5914V27.9304C4.21436 36.329 10.9968 43.122 19.3823 43.122H21.4787C31.529 43.122 39.6884 34.9704 39.6884 24.8838C39.6884 23.0518 39.0308 21.2609 37.7976 19.8817Z" stroke="#231F20" stroke-linecap="round" stroke-linejoin="round"/>
<path d="M30.2342 9.28053V17.3086" stroke="#231F20" stroke-linecap="round" stroke-linejoin="round"/>
<path d="M27.9734 26.3042C23.945 26.3042 20.6771 29.5772 20.6771 33.6118V35.7732" stroke="#231F20" stroke-linecap="round" stroke-linejoin="round"/>
</svg>
