<svg width="150" height="150" viewBox="0 0 150 150" fill="none" xmlns="http://www.w3.org/2000/svg">
<path d="M55.2463 72.7186C55.2463 80.003 49.3419 85.9287 42.0836 85.9287L38.1724 85.9287" stroke="#231F20" stroke-linecap="round" stroke-linejoin="round"/>
<path d="M129.07 52.4129C129.634 56.4891 126.814 60.2257 122.752 60.8296L82.211 66.7552L122.639 72.6809C126.663 73.4735 129.258 77.361 128.469 81.3995C127.754 85.1361 124.332 87.7026 120.571 87.3629L89.9206 83.0602C92.7412 86.3816 92.3651 91.4014 89.018 94.2321C87.5889 95.4399 85.7838 96.1193 83.941 96.1193L76.8331 96.1193C81.158 96.3835 84.5051 100.12 84.2795 104.498C84.0538 108.537 80.8572 111.783 76.8331 111.971L55.4344 111.971C39.6767 111.971 25.9123 100.045 24.8969 84.268C23.8439 68.0007 36.0664 52.6016 55.2463 52.6016C80.5563 52.6016 72.0946 52.6016 120.684 46.0721C124.745 45.5059 128.506 48.3366 129.07 52.4129Z" stroke="#231F20" stroke-linecap="round" stroke-linejoin="round"/>
<path d="M84.7308 104.045C84.7308 108.423 81.1956 111.971 76.8332 111.971L67.2056 111.971C62.8431 111.971 59.308 108.423 59.308 104.045C59.308 99.6671 62.8431 96.1193 67.2056 96.1193L76.8332 96.1193C81.1956 96.157 84.7308 99.6671 84.7308 104.045Z" fill="white"/>
<path d="M91.8387 88.231C91.8387 92.6092 88.3035 96.157 83.941 96.157L67.2056 96.157C62.8431 96.157 59.308 92.6092 59.308 88.231C59.308 83.8528 62.8431 80.305 67.2056 80.305L83.9786 80.305C88.3035 80.305 91.8387 83.8528 91.8387 88.231Z" fill="white"/>
<path d="M84.7308 104.045C84.7308 108.423 81.1956 111.971 76.8332 111.971L67.2056 111.971C62.8431 111.971 59.308 108.423 59.308 104.045C59.308 99.6671 62.8431 96.1193 67.2056 96.1193L76.8332 96.1193C81.1956 96.157 84.7308 99.6671 84.7308 104.045Z" stroke="#231F20" stroke-linecap="round" stroke-linejoin="round"/>
<path d="M91.8387 88.231C91.8387 92.6092 88.3035 96.157 83.941 96.157L67.2056 96.157C62.8431 96.157 59.308 92.6092 59.308 88.231C59.308 83.8528 62.8431 80.305 67.2056 80.305L83.9786 80.305C88.3035 80.305 91.8387 83.8528 91.8387 88.231Z" stroke="#231F20" stroke-linecap="round" stroke-linejoin="round"/>
<path d="M55.2463 52.6016C63.7457 52.6016 70.6279 59.5086 70.6279 68.0385L70.6279 92.1185C70.6279 94.3831 68.8227 96.1948 66.5663 96.1948C60.3234 96.1948 55.2463 91.0995 55.2463 84.8341L55.2463 72.6809" fill="white"/>
<path d="M55.2463 52.6016C63.7457 52.6016 70.6279 59.5086 70.6279 68.0385L70.6279 92.1185C70.6279 94.3831 68.8227 96.1948 66.5663 96.1948C60.3234 96.1948 55.2463 91.0995 55.2463 84.8341L55.2463 72.6809" stroke="#231F20" stroke-linecap="round" stroke-linejoin="round"/>
</svg>
