<svg width="32" height="48" viewBox="0 0 32 48" fill="none" xmlns="http://www.w3.org/2000/svg">
<g clip-path="url(#clip0_3_75)">
<path d="M27.9309 0.963363C26.1281 0.713251 24.4755 1.96381 24.2084 3.76463L21.5876 21.7394L18.9668 3.81465C18.6162 2.03051 16.8969 0.879992 15.1107 1.23015C13.4581 1.54696 12.323 3.06431 12.4732 4.73173L14.3762 18.3212C12.9073 17.0706 10.6871 17.2374 9.43512 18.7214C8.90095 19.355 8.60048 20.1553 8.60048 20.9724V24.1238C8.48362 22.2063 6.83102 20.7223 4.89464 20.8223C3.1085 20.9224 1.6729 22.3397 1.58944 24.1238V33.6114C1.58944 40.5979 6.86441 46.7006 13.8421 47.1508C21.0367 47.6177 27.8474 42.1986 27.8474 33.6948C27.8474 22.4731 27.8474 26.2247 30.7353 4.68171C30.9857 2.88089 29.7337 1.21348 27.9309 0.963363Z" fill="white"/>
<path d="M18.9501 33.6948C15.7284 33.6948 13.1076 36.3126 13.1076 39.5307V41.2649" stroke="#231F20" stroke-linecap="round" stroke-linejoin="round"/>
<path d="M27.9309 0.963363C26.1281 0.713251 24.4755 1.96381 24.2084 3.76463L21.5876 21.7394L18.9668 3.81465C18.6162 2.03051 16.8969 0.879992 15.1107 1.23015C13.4581 1.54696 12.323 3.06431 12.4732 4.73173L14.3762 18.3212C12.9073 17.0706 10.6871 17.2374 9.43512 18.7214C8.90095 19.355 8.60048 20.1553 8.60048 20.9724V24.1238C8.48362 22.2063 6.83102 20.7223 4.89464 20.8223C3.1085 20.9224 1.6729 22.3397 1.58944 24.1238V33.6114C1.58944 40.5979 6.86441 46.7006 13.8421 47.1508C21.0367 47.6177 27.8474 42.1986 27.8474 33.6948C27.8474 22.4731 27.8474 26.2247 30.7353 4.68171C30.9857 2.88089 29.7337 1.21348 27.9309 0.963363Z" stroke="#231F20" stroke-linecap="round" stroke-linejoin="round"/>
<path d="M5.09496 20.6222C3.15858 20.6222 1.58944 22.1896 1.58944 24.1238V28.3924C1.58944 30.3266 3.15858 31.894 5.09496 31.894C7.03134 31.894 8.60047 30.3266 8.60047 28.3924V24.1238C8.58378 22.1896 7.03134 20.6222 5.09496 20.6222Z" fill="white"/>
<path d="M12.0893 17.4708C10.1529 17.4708 8.58378 19.0382 8.58378 20.9724V28.3924C8.58378 30.3266 10.1529 31.894 12.0893 31.894C14.0257 31.894 15.5948 30.3266 15.5948 28.3924V20.9557C15.5948 19.0382 14.0257 17.4708 12.0893 17.4708Z" fill="white"/>
<path d="M5.09496 20.6222C3.15858 20.6222 1.58944 22.1896 1.58944 24.1238V28.3924C1.58944 30.3266 3.15858 31.894 5.09496 31.894C7.03134 31.894 8.60047 30.3266 8.60047 28.3924V24.1238C8.58378 22.1896 7.03134 20.6222 5.09496 20.6222Z" stroke="#231F20" stroke-linecap="round" stroke-linejoin="round"/>
<path d="M12.0893 17.4708C10.1529 17.4708 8.58378 19.0382 8.58378 20.9724V28.3924C8.58378 30.3266 10.1529 31.894 12.0893 31.894C14.0257 31.894 15.5948 30.3266 15.5948 28.3924V20.9557C15.5948 19.0382 14.0257 17.4708 12.0893 17.4708Z" stroke="#231F20" stroke-linecap="round" stroke-linejoin="round"/>
<path d="M27.8474 33.6948C27.8474 29.9264 24.7926 26.875 21.02 26.875H10.3699C9.36835 26.875 8.56709 27.6754 8.56709 28.6759C8.56709 31.4438 10.8206 33.6948 13.5917 33.6948H18.9668" fill="white"/>
<path d="M27.8474 33.6948C27.8474 29.9264 24.7926 26.875 21.02 26.875H10.3699C9.36835 26.875 8.56709 27.6754 8.56709 28.6759C8.56709 31.4438 10.8206 33.6948 13.5917 33.6948H18.9668" stroke="#231F20" stroke-linecap="round" stroke-linejoin="round"/>
</g>
<defs>
<clipPath id="clip0_3_75">
<rect width="30.7317" height="47.8049" fill="white" transform="translate(0.804871 0.146332)"/>
</clipPath>
</defs>
</svg>
